<svg width="10" height="11" viewBox="0 0 10 11" fill="none" xmlns="http://www.w3.org/2000/svg">
<path d="M7.93037 5.40233H8.7055C8.88073 5.40233 9.02331 5.2612 9.02331 5.08774V4.32044C9.02331 4.14698 8.88073 4.00585 8.7055 4.00585H7.93037C7.75513 4.00585 7.61256 4.14698 7.61256 4.32044V5.08774C7.61256 5.2612 7.75513 5.40233 7.93037 5.40233ZM7.93811 4.32811H8.69775V5.08007H7.93811V4.32811ZM7.93037 7.44335H8.7055C8.88073 7.44335 9.02331 7.30222 9.02331 7.12875V6.36146C9.02331 6.18799 8.88073 6.04686 8.7055 6.04686H7.93037C7.75513 6.04686 7.61256 6.18799 7.61256 6.36146V7.12875C7.61256 7.30222 7.75513 7.44335 7.93037 7.44335ZM7.93811 6.36913H8.69775V7.12108H7.93811V6.36913ZM5.7184 5.40233H6.49353C6.66876 5.40233 6.81134 5.2612 6.81134 5.08774V4.32044C6.81134 4.14698 6.66876 4.00585 6.49353 4.00585H5.7184C5.54316 4.00585 5.40059 4.14698 5.40059 4.32044V5.08774C5.40059 5.2612 5.54316 5.40233 5.7184 5.40233ZM5.72615 4.32811H6.48578V5.08007H5.72615V4.32811ZM2.06959 7.99219H1.29446C1.11922 7.99219 0.976651 8.13332 0.976651 8.30678V9.07408C0.976651 9.24754 1.11922 9.38867 1.29446 9.38867H2.06959C2.24483 9.38867 2.3874 9.24754 2.3874 9.07408V8.30678C2.3874 8.13332 2.24483 7.99219 2.06959 7.99219ZM2.06184 9.06641H1.30221V8.31445H2.06184V9.06641ZM2.06959 4.00585H1.29446C1.11922 4.00585 0.976651 4.14698 0.976651 4.32044V5.08774C0.976651 5.2612 1.11922 5.40233 1.29446 5.40233H2.06959C2.24483 5.40233 2.3874 5.2612 2.3874 5.08774V4.32044C2.3874 4.14696 2.24483 4.00585 2.06959 4.00585ZM2.06184 5.08007H1.30221V4.32811H2.06184V5.08007ZM5.7184 7.3955H6.49353C6.66876 7.3955 6.81134 7.25437 6.81134 7.08091V6.31361C6.81134 6.14015 6.66876 5.99902 6.49353 5.99902H5.7184C5.54316 5.99902 5.40059 6.14015 5.40059 6.31361V7.08091C5.40059 7.25437 5.54316 7.3955 5.7184 7.3955ZM5.72615 6.32128H6.48578V7.07324H5.72615V6.32128ZM9.18498 0.736355H8.48902V0.489994C8.48902 0.219807 8.26697 0 7.99402 0H7.91928C7.64635 0 7.4243 0.219807 7.4243 0.489994V0.736355H2.57566V0.489994C2.57566 0.219807 2.35361 0 2.08066 0H2.00591C1.73296 0 1.51091 0.219807 1.51091 0.489994V0.736355H0.814979C0.365601 0.736355 0 1.09826 0 1.54309V10.1943C0 10.6386 0.365102 11 0.813894 11H9.18611C9.6349 11 10 10.6386 10 10.1943V1.54309C9.99998 1.09826 9.63438 0.736355 9.18498 0.736355ZM7.74986 0.489994C7.74986 0.397504 7.82586 0.322266 7.9193 0.322266H7.99404C8.08748 0.322266 8.16349 0.397504 8.16349 0.489994V0.736355H7.74986V0.489994ZM1.83649 0.489994C1.83649 0.397504 1.9125 0.322266 2.00593 0.322266H2.08068C2.17412 0.322266 2.25012 0.397504 2.25012 0.489994V0.736355H1.83651L1.83649 0.489994ZM9.67442 10.1943C9.67442 10.4609 9.45536 10.6777 9.18608 10.6777H0.813872C0.544593 10.6777 0.325536 10.4609 0.325536 10.1943V10.1933C0.461923 10.2951 0.631451 10.3555 0.814979 10.3555H7.41475C7.63244 10.3555 7.8371 10.2716 7.99103 10.1192L9.67442 8.45279V10.1943ZM7.82493 9.82783C7.83769 9.77569 7.84464 9.72131 7.84464 9.66535V8.58975C7.84464 8.38694 8.01134 8.22192 8.21625 8.22192H9.30281C9.35935 8.22192 9.41428 8.21504 9.46695 8.20241L7.82493 9.82783ZM9.67442 3.03905H2.73844C2.64854 3.03905 2.57566 3.1112 2.57566 3.20018C2.57566 3.28917 2.64854 3.36132 2.73844 3.36132H9.67442V7.53182C9.67442 7.73465 9.50771 7.89968 9.30281 7.89968H8.21625C7.83183 7.89968 7.51908 8.20927 7.51908 8.58978V9.66537C7.51908 9.8682 7.35237 10.0332 7.14749 10.0332H0.814979C0.545114 10.0332 0.325558 9.81589 0.325558 9.54873V3.36132H2.08732C2.17722 3.36132 2.2501 3.28917 2.2501 3.20018C2.2501 3.1112 2.17722 3.03905 2.08732 3.03905H0.325536V1.54309C0.325536 1.27596 0.545092 1.05862 0.814957 1.05862H1.51091V1.53239C1.51091 1.80258 1.73296 2.02239 2.00591 2.02239C2.09581 2.02239 2.16869 1.95024 2.16869 1.86126C2.16869 1.77227 2.09581 1.70012 2.00591 1.70012C1.91248 1.70012 1.83647 1.62488 1.83647 1.53239V1.05862H7.4243V1.53239C7.4243 1.80258 7.64635 2.02239 7.9193 2.02239C8.00919 2.02239 8.08208 1.95024 8.08208 1.86126C8.08208 1.77227 8.00919 1.70012 7.9193 1.70012C7.82586 1.70012 7.74986 1.62488 7.74986 1.53239V1.05862H9.185C9.45487 1.05862 9.67442 1.27596 9.67442 1.54309V3.03905ZM2.06959 5.99902H1.29446C1.11922 5.99902 0.976651 6.14015 0.976651 6.31361V7.08091C0.976651 7.25437 1.11922 7.3955 1.29446 7.3955H2.06959C2.24483 7.3955 2.3874 7.25437 2.3874 7.08091V6.31361C2.3874 6.14013 2.24483 5.99902 2.06959 5.99902ZM2.06184 7.07324H1.30221V6.32128H2.06184V7.07324ZM3.50643 5.40233H4.28156C4.4568 5.40233 4.59937 5.2612 4.59937 5.08774V4.32044C4.59937 4.14698 4.4568 4.00585 4.28156 4.00585H3.50643C3.33119 4.00585 3.18862 4.14698 3.18862 4.32044V5.08774C3.18862 5.2612 3.33119 5.40233 3.50643 5.40233ZM3.51418 4.32811H4.27381V5.08007H3.51418V4.32811ZM5.72595 9.06641C5.72191 8.98096 5.65066 8.91294 5.56334 8.91294C5.47345 8.91294 5.40057 8.98509 5.40057 9.07408C5.40057 9.24754 5.54314 9.38867 5.71838 9.38867H6.49351C6.66874 9.38867 6.81132 9.24754 6.81132 9.07408V8.30678C6.81132 8.13332 6.66874 7.99219 6.49351 7.99219H5.71838C5.54314 7.99219 5.40057 8.13332 5.40057 8.30678V8.52807C5.40057 8.61706 5.47345 8.68921 5.56334 8.68921C5.65324 8.68921 5.72612 8.61706 5.72612 8.52807V8.31445H6.48576V9.06641H5.72595ZM3.50643 7.3955H4.28156C4.4568 7.3955 4.59937 7.25437 4.59937 7.08091V6.31361C4.59937 6.14015 4.4568 5.99902 4.28156 5.99902H3.50643C3.33119 5.99902 3.18862 6.14015 3.18862 6.31361V7.08091C3.18862 7.25437 3.33119 7.3955 3.50643 7.3955ZM3.51418 6.32128H4.27381V7.07324H3.51418V6.32128ZM3.50643 9.38867H4.28156C4.4568 9.38867 4.59937 9.24754 4.59937 9.07408V8.30678C4.59937 8.13332 4.4568 7.99219 4.28156 7.99219H3.50643C3.33119 7.99219 3.18862 8.13332 3.18862 8.30678V9.07408C3.18862 9.24754 3.33119 9.38867 3.50643 9.38867ZM3.51418 8.31445H4.27381V9.06641H3.51418V8.31445Z" fill="black"/>
</svg>
