<svg width="66" height="66" viewBox="0 0 66 66" fill="none" xmlns="http://www.w3.org/2000/svg">
<path d="M33 0C14.8031 0 0 14.8031 0 33C0 51.1969 14.8031 66 33 66C51.1969 66 66 51.1969 66 33C66 14.8031 51.1969 0 33 0ZM47.4375 35.7498H35.7498V47.4375C35.7498 48.9557 34.5182 50.1873 33 50.1873C31.4818 50.1873 30.2502 48.9557 30.2502 47.4375V35.7498H18.5625C17.0443 35.7498 15.8127 34.5182 15.8127 33C15.8127 31.4818 17.0443 30.2502 18.5625 30.2502H30.2502V18.5625C30.2502 17.0443 31.4818 15.8127 33 15.8127C34.5182 15.8127 35.7498 17.0443 35.7498 18.5625V30.2502H47.4375C48.9557 30.2502 50.1873 31.4818 50.1873 33C50.1873 34.5182 48.9557 35.7498 47.4375 35.7498V35.7498Z" fill="#A742E4"/>
</svg>
