<svg width="13" height="13" viewBox="0 0 13 13" fill="none" xmlns="http://www.w3.org/2000/svg">
<path d="M12.7105 5.39805L11.1896 5.0248C11.1059 4.7582 10.9992 4.49922 10.8697 4.24785L11.6467 2.95293C11.7381 2.80059 11.7152 2.61016 11.5934 2.48828L10.5117 1.40664C10.3898 1.28477 10.1994 1.26191 10.0471 1.35332L8.75215 2.13027C8.50078 2.00078 8.2418 1.89414 7.9752 1.81035L7.60957 0.289453C7.56387 0.121875 7.41152 0 7.23633 0H5.71289C5.5377 0 5.38535 0.121875 5.33965 0.289453L4.97402 1.81035C4.70742 1.89414 4.44844 2.00078 4.19707 2.13027L2.90215 1.35332C2.7498 1.26191 2.55938 1.28477 2.4375 1.40664L1.35586 2.48828C1.23398 2.61016 1.21113 2.80059 1.30254 2.95293L2.07949 4.24785C1.95 4.49922 1.84336 4.7582 1.75957 5.0248L0.289453 5.39805C0.121875 5.43613 0 5.58848 0 5.76367V7.28711C0 7.4623 0.121875 7.61465 0.289453 7.65273L1.75957 8.02598C1.84336 8.29258 1.95 8.55156 2.07949 8.80293L1.30254 10.0979C1.21113 10.2502 1.23398 10.4406 1.35586 10.5625L2.4375 11.6441C2.55938 11.766 2.7498 11.7889 2.90215 11.6975L4.19707 10.9205C4.44844 11.05 4.70742 11.1566 4.97402 11.2404L5.33965 12.7105C5.38535 12.8781 5.5377 13 5.71289 13H7.23633C7.41152 13 7.56387 12.8781 7.60957 12.7105L7.9752 11.2404C8.2418 11.1566 8.50078 11.05 8.75215 10.9205L10.0471 11.6975C10.1994 11.7889 10.3898 11.766 10.5117 11.6441L11.5934 10.5625C11.7152 10.4406 11.7381 10.2502 11.6467 10.0979L10.8697 8.80293C10.9992 8.55156 11.1059 8.29258 11.1896 8.02598L12.7105 7.65273C12.8781 7.61465 13 7.4623 13 7.28711V5.76367C13 5.58848 12.8781 5.43613 12.7105 5.39805ZM6.47461 8.42969C5.42344 8.42969 4.57031 7.57656 4.57031 6.52539C4.57031 5.47422 5.42344 4.62109 6.47461 4.62109C7.52578 4.62109 8.37891 5.47422 8.37891 6.52539C8.37891 7.57656 7.52578 8.42969 6.47461 8.42969Z" fill="#A742E4"/>
</svg>
