<svg width="30" height="15" viewBox="0 0 30 15" fill="none" xmlns="http://www.w3.org/2000/svg">
<path d="M0.343723 8.35627C0.344076 8.35663 0.344368 8.35706 0.344778 8.35742L6.46806 14.6477C6.92679 15.119 7.66876 15.1172 8.12538 14.6436C8.58194 14.1701 8.58018 13.4042 8.12145 12.9329L4.01028 8.70968L28.8281 8.70968C29.4754 8.70968 30 8.16811 30 7.5C30 6.83189 29.4754 6.29032 28.8281 6.29032L4.01034 6.29032L8.1214 2.06709C8.58013 1.5958 8.58188 0.829896 8.12532 0.356368C7.6687 -0.117282 6.92667 -0.118915 6.468 0.352255L0.344721 6.64258C0.344368 6.64294 0.344074 6.64337 0.343664 6.64373C-0.115299 7.11659 -0.113834 7.88498 0.343723 8.35627Z" fill="#B67ADB"/>
</svg>
