<svg width="14" height="14" viewBox="0 0 14 14" fill="none" xmlns="http://www.w3.org/2000/svg">
<path d="M7 0C3.14005 0 0 3.14005 0 7C0 10.86 3.14005 14 7 14C10.86 14 14 10.86 14 7C14 3.14005 10.86 0 7 0ZM7 13.125C3.62251 13.125 0.875 10.3775 0.875 7C0.875 3.62251 3.62251 0.875 7 0.875C10.3775 0.875 13.125 3.62251 13.125 7C13.125 10.3775 10.3775 13.125 7 13.125Z" fill="#A742E4"/>
<path d="M10.0625 6.50002H3.9375C3.696 6.50002 3.5 6.72401 3.5 7.00002C3.5 7.27602 3.696 7.50002 3.9375 7.50002H10.0625C10.304 7.50002 10.5 7.27602 10.5 7.00002C10.5 6.72401 10.304 6.50002 10.0625 6.50002Z" fill="#A742E4"/>
<path d="M7 3.5C6.724 3.5 6.5 3.696 6.5 3.9375V10.0625C6.5 10.304 6.724 10.5 7 10.5C7.276 10.5 7.5 10.304 7.5 10.0625V3.9375C7.5 3.696 7.276 3.5 7 3.5Z" fill="#A742E4"/>
</svg>
