<svg width="232" height="232" viewBox="0 0 232 232" fill="none" xmlns="http://www.w3.org/2000/svg">
<path d="M14.9884 231.264C11.1528 231.264 7.31451 229.796 4.39529 226.874C-1.4651 221.016 -1.4651 211.545 4.39529 205.688L205.687 4.39323C211.545 -1.46441 221.016 -1.46441 226.873 4.39323C232.734 10.2509 232.734 19.7219 226.873 25.5795L25.5816 226.874C22.6431 229.81 18.824 231.264 14.9884 231.264Z" fill="#F44336"/>
<path d="M216.28 231.264C212.444 231.264 208.609 229.796 205.687 226.874L4.39529 25.5795C-1.4651 19.7219 -1.4651 10.2509 4.39529 4.39323C10.2529 -1.46441 19.7212 -1.46441 25.5816 4.39323L226.873 205.688C232.734 211.545 232.734 221.016 226.873 226.874C223.951 229.81 220.116 231.264 216.28 231.264Z" fill="#F44336"/>
</svg>
