<svg width="15" height="15" viewBox="0 0 15 15" fill="none" xmlns="http://www.w3.org/2000/svg">
<defs>
<clipPath id="clip0">
<rect width="15" height="15" fill="white"/>
</clipPath>
</defs>
<g clip-path="url(#clip0)">
<path d="M14.172 2.65084e-08H0.827293C0.370331 0.000228908 -0.000114414 0.370903 2.65084e-08 0.82798V14.1727C0.000228908 14.6297 0.370903 15.0001 0.82798 15H14.172C14.6292 15.0001 14.9999 14.6296 15 14.1724C15 14.1722 15 14.1721 15 14.172V0.827293C14.9998 0.370331 14.6291 -0.000114414 14.172 2.65084e-08V2.65084e-08Z" fill="#4267B2"/>
<path d="M10.3564 15V9.19922H12.312L12.605 6.92871H10.3564V5.48264C10.3564 4.82677 10.5385 4.37988 11.479 4.37988H12.6709V2.35462C12.4635 2.32704 11.7521 2.26536 10.9242 2.26536C9.19567 2.26536 8.0127 3.32005 8.0127 5.25776V6.92871H6.06445V9.19922H8.0127V15H10.3564Z" fill="white"/>
</g>
</svg>
